<?xml version="1.0" encoding="UTF-8"?>
<svg width="168px" height="264px" viewBox="0 0 168 264" version="1.1" xmlns="http://www.w3.org/2000/svg" xmlns:xlink="http://www.w3.org/1999/xlink">
    <!-- Generator: Sketch 60 (88103) - https://sketch.com -->
    <title>223</title>
    <desc>Created with Sketch.</desc>
    <g id="223" stroke="current" stroke-width="1" fill="none" fill-rule="evenodd">
        <g id="Group-5" transform="translate(30.000000, 69.000000)">
            <g id="Group-4">
                <path d="M107.985713,22.2095883 C107.985713,29.4851978 104.751035,52.3631371 84.436022,55.4077244 C71.2019385,57.3911011 62.2778729,53.9726461 53.5235222,51.348633 L53.5236427,51.3071509 C49.0746013,50.057858 44.6271598,49.0696662 39.8975979,49.0696662 C24.9206801,49.0696662 22.6585665,53.1311624 10.9033667,55.7092934 C-0.851832967,58.2874244 0.0142867957,43.0660213 0.0142867957,35.7904117 C0.0142867957,28.5148022 3.24896453,5.63686295 23.563978,2.59227558 C36.7980615,0.608898919 45.7221271,4.02735391 54.4764778,6.65136696 L54.4763573,6.69284908 C58.9253987,7.94214203 63.3728402,8.93033384 68.1024021,8.93033384 C83.0793199,8.93033384 85.3414335,4.86883758 97.0966333,2.29070661 C108.851833,-0.287424352 107.985713,14.9339787 107.985713,22.2095883 Z" id="Combined-Shape" stroke-width="5" stroke-linejoin="round"></path>
                <g id="Group-3" transform="translate(5.500000, 0.000000)" fill-rule="nonzero">
                    <g id="stripes-fill-svg" transform="translate(0.000000, 2.000000)">
                        <rect id="Rectangle" x="0" y="14" width="1" height="40"></rect>
                        <rect id="Rectangle" x="4" y="6" width="1" height="50"></rect>
                        <rect id="Rectangle" x="8" y="4" width="1" height="50"></rect>
                        <rect id="Rectangle" x="12" y="0" width="1" height="53"></rect>
                        <rect id="Rectangle" x="16" y="0" width="1" height="50"></rect>
                        <rect id="Rectangle" x="20" y="0" width="1" height="50"></rect>
                        <rect id="Rectangle" x="24" y="0" width="1" height="48"></rect>
                        <rect id="Rectangle" x="28" y="0" width="1" height="47"></rect>
                        <rect id="Rectangle" x="32" y="0" width="1" height="47"></rect>
                        <rect id="Rectangle" x="36" y="0" width="1" height="47"></rect>
                        <rect id="Rectangle" x="40" y="1" width="1" height="47"></rect>
                        <rect id="Rectangle" x="44" y="2" width="1" height="47"></rect>
                        <rect id="Rectangle" x="48" y="3" width="1" height="48"></rect>
                    </g>
                    <g id="Group" transform="translate(74.500000, 28.000000) scale(-1, -1) translate(-74.500000, -28.000000) translate(52.000000, 0.000000)">
                        <rect id="Rectangle" x="0" y="14" width="1" height="40"></rect>
                        <rect id="Rectangle" x="4" y="6" width="1" height="50"></rect>
                        <rect id="Rectangle" x="8" y="4" width="1" height="50"></rect>
                        <rect id="Rectangle" x="12" y="0" width="1" height="53"></rect>
                        <rect id="Rectangle" x="16" y="0" width="1" height="50"></rect>
                        <rect id="Rectangle" x="20" y="0" width="1" height="50"></rect>
                        <rect id="Rectangle" x="24" y="0" width="1" height="48"></rect>
                        <rect id="Rectangle" x="28" y="0" width="1" height="47"></rect>
                        <rect id="Rectangle" x="32" y="0" width="1" height="47"></rect>
                        <rect id="Rectangle" x="36" y="0" width="1" height="47"></rect>
                        <rect id="Rectangle" x="40" y="1" width="1" height="47"></rect>
                        <rect id="Rectangle" x="44" y="2" width="1" height="47"></rect>
                    </g>
                </g>
            </g>
            <g id="Group-4" transform="translate(0.000000, 69.000000)">
                <path d="M107.985713,22.2095883 C107.985713,29.4851978 104.751035,52.3631371 84.436022,55.4077244 C71.2019385,57.3911011 62.2778729,53.9726461 53.5235222,51.348633 L53.5236427,51.3071509 C49.0746013,50.057858 44.6271598,49.0696662 39.8975979,49.0696662 C24.9206801,49.0696662 22.6585665,53.1311624 10.9033667,55.7092934 C-0.851832967,58.2874244 0.0142867957,43.0660213 0.0142867957,35.7904117 C0.0142867957,28.5148022 3.24896453,5.63686295 23.563978,2.59227558 C36.7980615,0.608898919 45.7221271,4.02735391 54.4764778,6.65136696 L54.4763573,6.69284908 C58.9253987,7.94214203 63.3728402,8.93033384 68.1024021,8.93033384 C83.0793199,8.93033384 85.3414335,4.86883758 97.0966333,2.29070661 C108.851833,-0.287424352 107.985713,14.9339787 107.985713,22.2095883 Z" id="Combined-Shape" stroke-width="5" stroke-linejoin="round"></path>
                <g id="Group-3" transform="translate(5.500000, 0.000000)" fill-rule="nonzero">
                    <g id="stripes-fill-svg" transform="translate(0.000000, 2.000000)">
                        <rect id="Rectangle" x="0" y="14" width="1" height="40"></rect>
                        <rect id="Rectangle" x="4" y="6" width="1" height="50"></rect>
                        <rect id="Rectangle" x="8" y="4" width="1" height="50"></rect>
                        <rect id="Rectangle" x="12" y="0" width="1" height="53"></rect>
                        <rect id="Rectangle" x="16" y="0" width="1" height="50"></rect>
                        <rect id="Rectangle" x="20" y="0" width="1" height="50"></rect>
                        <rect id="Rectangle" x="24" y="0" width="1" height="48"></rect>
                        <rect id="Rectangle" x="28" y="0" width="1" height="47"></rect>
                        <rect id="Rectangle" x="32" y="0" width="1" height="47"></rect>
                        <rect id="Rectangle" x="36" y="0" width="1" height="47"></rect>
                        <rect id="Rectangle" x="40" y="1" width="1" height="47"></rect>
                        <rect id="Rectangle" x="44" y="2" width="1" height="47"></rect>
                        <rect id="Rectangle" x="48" y="3" width="1" height="48"></rect>
                    </g>
                    <g id="Group" transform="translate(74.500000, 28.000000) scale(-1, -1) translate(-74.500000, -28.000000) translate(52.000000, 0.000000)">
                        <rect id="Rectangle" x="0" y="14" width="1" height="40"></rect>
                        <rect id="Rectangle" x="4" y="6" width="1" height="50"></rect>
                        <rect id="Rectangle" x="8" y="4" width="1" height="50"></rect>
                        <rect id="Rectangle" x="12" y="0" width="1" height="53"></rect>
                        <rect id="Rectangle" x="16" y="0" width="1" height="50"></rect>
                        <rect id="Rectangle" x="20" y="0" width="1" height="50"></rect>
                        <rect id="Rectangle" x="24" y="0" width="1" height="48"></rect>
                        <rect id="Rectangle" x="28" y="0" width="1" height="47"></rect>
                        <rect id="Rectangle" x="32" y="0" width="1" height="47"></rect>
                        <rect id="Rectangle" x="36" y="0" width="1" height="47"></rect>
                        <rect id="Rectangle" x="40" y="1" width="1" height="47"></rect>
                        <rect id="Rectangle" x="44" y="2" width="1" height="47"></rect>
                    </g>
                </g>
            </g>
        </g>
    </g>
</svg>