<?xml version="1.0" encoding="UTF-8"?>
<svg width="168px" height="264px" viewBox="0 0 168 264" version="1.1" xmlns="http://www.w3.org/2000/svg" xmlns:xlink="http://www.w3.org/1999/xlink">
    <!-- Generator: Sketch 60 (88103) - https://sketch.com -->
    <title>122</title>
    <desc>Created with Sketch.</desc>
    <g id="122" stroke="current" stroke-width="1" fill="none" fill-rule="evenodd">
        <g id="Group" transform="translate(30.000000, 105.000000)">
            <rect id="Rectangle" stroke="current" stroke-width="5" x="2.5" y="2.5" width="103" height="49" rx="24.5"></rect>
            <g id="stripes-fill-svg" transform="translate(5.500000, 1.000000)" fill-rule="nonzero">
                <rect id="Rectangle" x="0" y="16" width="1" height="20"></rect>
                <rect id="Rectangle" x="4" y="10" width="1" height="32"></rect>
                <rect id="Rectangle" x="8" y="4" width="1" height="44"></rect>
                <rect id="Rectangle" x="12" y="2" width="1" height="48"></rect>
                <rect id="Rectangle" x="16" y="1" width="1" height="50"></rect>
                <rect id="Rectangle" x="20" y="0" width="1" height="52"></rect>
                <rect id="Rectangle" x="24" y="1" width="1" height="50"></rect>
                <rect id="Rectangle" x="28" y="1" width="1" height="50"></rect>
                <rect id="Rectangle" x="32" y="1" width="1" height="50"></rect>
                <rect id="Rectangle" x="36" y="1" width="1" height="50"></rect>
                <rect id="Rectangle" x="40" y="1" width="1" height="50"></rect>
                <rect id="Rectangle" x="44" y="1" width="1" height="50"></rect>
                <rect id="Rectangle" x="48" y="1" width="1" height="50"></rect>
                <rect id="Rectangle" x="52" y="1" width="1" height="50"></rect>
                <rect id="Rectangle" x="56" y="1" width="1" height="50"></rect>
                <rect id="Rectangle" x="60" y="1" width="1" height="50"></rect>
                <rect id="Rectangle" x="64" y="1" width="1" height="50"></rect>
                <rect id="Rectangle" x="68" y="1" width="1" height="50"></rect>
                <rect id="Rectangle" x="72" y="1" width="1" height="50"></rect>
                <rect id="Rectangle" x="76" y="0" width="1" height="52"></rect>
                <rect id="Rectangle" x="80" y="1" width="1" height="50"></rect>
                <rect id="Rectangle" x="84" y="2" width="1" height="48"></rect>
                <rect id="Rectangle" x="88" y="4" width="1" height="44"></rect>
                <rect id="Rectangle" x="92" y="10" width="1" height="32"></rect>
                <rect id="Rectangle" x="96" y="16" width="1" height="20"></rect>
            </g>
        </g>
    </g>
</svg>