<?xml version="1.0" encoding="UTF-8"?>
<svg width="168px" height="264px" viewBox="0 0 168 264" version="1.1" xmlns="http://www.w3.org/2000/svg" xmlns:xlink="http://www.w3.org/1999/xlink">
    <title>123</title>
    <g id="123" stroke="none" stroke-width="1" fill="none" fill-rule="evenodd">
        <g id="Group-4" transform="translate(30.000000, 103.000000)">
            <path d="M107.90966,15.0853448 L107.937369,15.6653156 C107.982459,16.7256521 107.997229,17.7677242 107.999632,18.7572648 L107.999823,19.2915985 C107.998185,20.3490226 107.985713,21.3365151 107.985713,22.2095883 C107.985713,29.4851978 104.751035,52.3631371 84.436022,55.4077244 C71.6582862,57.3227088 62.8984506,54.2019785 54.4299198,51.6226625 L53.5235222,51.348633 L53.5236427,51.3071509 C49.0746013,50.057858 44.6271598,49.0696662 39.8975979,49.0696662 C31.8493956,49.0696662 27.4728541,50.2425066 23.321804,51.7277486 L22.7299587,51.9419583 C22.6314494,51.9779832 22.532975,52.0141619 22.4344888,52.0504829 L21.7339035,52.3107926 C18.6918239,53.4478378 15.534203,54.693666 10.9033667,55.7092934 C2.32207096,57.591329 0.466676314,49.9879929 0.0903396701,42.9146552 L0.0626305783,42.3346844 C0.0175410204,41.2743479 0.0027709172,40.2322758 0.000368486898,39.2427352 L0.000176716932,38.7084015 C0.0018146711,37.6509774 0.0142867957,36.6634849 0.0142867957,35.7904117 C0.0142867957,28.5148022 3.24896453,5.63686295 23.563978,2.59227558 C36.3417138,0.677291218 45.1015494,3.7980215 53.5700802,6.37733748 L54.4764778,6.65136696 L54.4763573,6.69284908 C58.9253987,7.94214203 63.3728402,8.93033384 68.1024021,8.93033384 C76.1506044,8.93033384 80.5271459,7.7574934 84.678196,6.27225138 L85.2700413,6.05804168 C85.3685506,6.02201684 85.467025,5.98583812 85.5655112,5.94951715 L86.2660965,5.68920744 C89.3081761,4.55216217 92.465797,3.30633396 97.0966333,2.29070661 C105.677929,0.408671009 107.533324,8.0120071 107.90966,15.0853448 Z" id="Combined-Shape" stroke="#000000" stroke-width="5" stroke-linejoin="round"></path>
            <g id="Group-3" transform="translate(5.500000, 0.000000)" fill="#000000" fill-rule="nonzero">
                <g id="stripes-fill-svg" transform="translate(0.000000, 2.000000)">
                    <rect id="Rectangle" x="0" y="14" width="1" height="40"></rect>
                    <rect id="Rectangle" x="4" y="6" width="1" height="50"></rect>
                    <rect id="Rectangle" x="8" y="4" width="1" height="50"></rect>
                    <rect id="Rectangle" x="12" y="0" width="1" height="53"></rect>
                    <rect id="Rectangle" x="16" y="0" width="1" height="50"></rect>
                    <rect id="Rectangle" x="20" y="0" width="1" height="50"></rect>
                    <rect id="Rectangle" x="24" y="0" width="1" height="48"></rect>
                    <rect id="Rectangle" x="28" y="0" width="1" height="47"></rect>
                    <rect id="Rectangle" x="32" y="0" width="1" height="47"></rect>
                    <rect id="Rectangle" x="36" y="0" width="1" height="47"></rect>
                    <rect id="Rectangle" x="40" y="1" width="1" height="47"></rect>
                    <rect id="Rectangle" x="44" y="2" width="1" height="47"></rect>
                    <rect id="Rectangle" x="48" y="3" width="1" height="48"></rect>
                </g>
                <g id="Group" transform="translate(74.500000, 28.000000) scale(-1, -1) translate(-74.500000, -28.000000) translate(52.000000, 0.000000)">
                    <rect id="Rectangle" x="0" y="14" width="1" height="40"></rect>
                    <rect id="Rectangle" x="4" y="6" width="1" height="50"></rect>
                    <rect id="Rectangle" x="8" y="4" width="1" height="50"></rect>
                    <rect id="Rectangle" x="12" y="0" width="1" height="53"></rect>
                    <rect id="Rectangle" x="16" y="0" width="1" height="50"></rect>
                    <rect id="Rectangle" x="20" y="0" width="1" height="50"></rect>
                    <rect id="Rectangle" x="24" y="0" width="1" height="48"></rect>
                    <rect id="Rectangle" x="28" y="0" width="1" height="47"></rect>
                    <rect id="Rectangle" x="32" y="0" width="1" height="47"></rect>
                    <rect id="Rectangle" x="36" y="0" width="1" height="47"></rect>
                    <rect id="Rectangle" x="40" y="1" width="1" height="47"></rect>
                    <rect id="Rectangle" x="44" y="2" width="1" height="47"></rect>
                </g>
            </g>
        </g>
    </g>
</svg>