<?xml version="1.0" encoding="UTF-8"?>
<svg width="168px" height="264px" viewBox="0 0 168 264" version="1.1" xmlns="http://www.w3.org/2000/svg" xmlns:xlink="http://www.w3.org/1999/xlink">
    <!-- Generator: Sketch 60 (88103) - https://sketch.com -->
    <title>133</title>
    <desc>Created with Sketch.</desc>
    <g id="133" stroke="current" stroke-width="1" fill="current" fill-rule="evenodd" stroke-linejoin="round">
        <path d="M137.985713,125.209588 C137.985713,132.485198 134.751035,155.363137 114.436022,158.407724 C101.201938,160.391101 92.2778729,156.972646 83.5235222,154.348633 L83.5236427,154.307151 C79.0746013,153.057858 74.6271598,152.069666 69.8975979,152.069666 C54.9206801,152.069666 52.6585665,156.131162 40.9033667,158.709293 C29.148167,161.287424 30.0142868,146.066021 30.0142868,138.790412 C30.0142868,131.514802 33.2489645,108.636863 53.563978,105.592276 C66.7980615,103.608899 75.7221271,107.027354 84.4764778,109.651367 L84.4763573,109.692849 C88.9253987,110.942142 93.3728402,111.930334 98.1024021,111.930334 C113.07932,111.930334 115.341434,107.868838 127.096633,105.290707 C138.851833,102.712576 137.985713,117.933979 137.985713,125.209588 Z" id="Combined-Shape" stroke-width="5"></path>
    </g>
</svg>