<?xml version="1.0" encoding="UTF-8"?>
<svg width="168px" height="264px" viewBox="0 0 168 264" version="1.1" xmlns="http://www.w3.org/2000/svg" xmlns:xlink="http://www.w3.org/1999/xlink">
    <!-- Generator: Sketch 60 (88103) - https://sketch.com -->
    <title>213</title>
    <desc>Created with Sketch.</desc>
    <g id="213" stroke="current" stroke-width="1" fill="none" fill-rule="evenodd" stroke-linejoin="round">
        <path d="M137.985713,91.2095883 C137.985713,98.4851978 134.751035,121.363137 114.436022,124.407724 C101.201938,126.391101 92.2778729,122.972646 83.5235222,120.348633 L83.5236427,120.307151 C79.0746013,119.057858 74.6271598,118.069666 69.8975979,118.069666 C54.9206801,118.069666 52.6585665,122.131162 40.9033667,124.709293 C29.148167,127.287424 30.0142868,112.066021 30.0142868,104.790412 C30.0142868,97.5148022 33.2489645,74.6368629 53.563978,71.5922756 C66.7980615,69.6088989 75.7221271,73.0273539 84.4764778,75.651367 L84.4763573,75.6928491 C88.9253987,76.942142 93.3728402,77.9303338 98.1024021,77.9303338 C113.07932,77.9303338 115.341434,73.8688376 127.096633,71.2907066 C138.851833,68.7125756 137.985713,83.9339787 137.985713,91.2095883 Z" id="Combined-Shape" stroke-width="5"></path>
        <path d="M137.985713,160.209588 C137.985713,167.485198 134.751035,190.363137 114.436022,193.407724 C101.201938,195.391101 92.2778729,191.972646 83.5235222,189.348633 L83.5236427,189.307151 C79.0746013,188.057858 74.6271598,187.069666 69.8975979,187.069666 C54.9206801,187.069666 52.6585665,191.131162 40.9033667,193.709293 C29.148167,196.287424 30.0142868,181.066021 30.0142868,173.790412 C30.0142868,166.514802 33.2489645,143.636863 53.563978,140.592276 C66.7980615,138.608899 75.7221271,142.027354 84.4764778,144.651367 L84.4763573,144.692849 C88.9253987,145.942142 93.3728402,146.930334 98.1024021,146.930334 C113.07932,146.930334 115.341434,142.868838 127.096633,140.290707 C138.851833,137.712576 137.985713,152.933979 137.985713,160.209588 Z" id="Combined-Shape" stroke-width="5"></path>
    </g>
</svg>