<?xml version="1.0" encoding="UTF-8"?>
<svg width="168px" height="264px" viewBox="0 0 168 264" version="1.1" xmlns="http://www.w3.org/2000/svg" xmlns:xlink="http://www.w3.org/1999/xlink">
    <!-- Generator: Sketch 60 (88103) - https://sketch.com -->
    <title>221</title>
    <desc>Created with Sketch.</desc>
    <g id="221" stroke="current" stroke-width="1" fill="none" fill-rule="evenodd">
        <g id="Group-2" transform="translate(30.000000, 68.000000)">
            <g id="Group">
                <polygon id="Path" stroke-width="5" stroke-linejoin="round" points="0 27 54 2.99760217e-15 108 27 54 54"></polygon>
                <g id="stripes-fill-svg" transform="translate(5.500000, 0.000000)" fill-rule="nonzero">
                    <rect id="Rectangle" x="0" y="25" width="1" height="4"></rect>
                    <rect id="Rectangle" x="4" y="24" width="1" height="6"></rect>
                    <rect id="Rectangle" x="8" y="22" width="1" height="10"></rect>
                    <rect id="Rectangle" x="12" y="20" width="1" height="14"></rect>
                    <rect id="Rectangle" x="16" y="18" width="1" height="18"></rect>
                    <rect id="Rectangle" x="20" y="16" width="1" height="22"></rect>
                    <rect id="Rectangle" x="24" y="14" width="1" height="26"></rect>
                    <rect id="Rectangle" x="28" y="12" width="1" height="30"></rect>
                    <rect id="Rectangle" x="32" y="10" width="1" height="34"></rect>
                    <rect id="Rectangle" x="36" y="8" width="1" height="38"></rect>
                    <rect id="Rectangle" x="40" y="6" width="1" height="42"></rect>
                    <rect id="Rectangle" x="44" y="4" width="1" height="46"></rect>
                    <rect id="Rectangle" x="48" y="0" width="1" height="54"></rect>
                    <rect id="Rectangle" x="52" y="2" width="1" height="50"></rect>
                    <rect id="Rectangle" x="56" y="4" width="1" height="46"></rect>
                    <rect id="Rectangle" x="60" y="6" width="1" height="42"></rect>
                    <rect id="Rectangle" x="64" y="8" width="1" height="38"></rect>
                    <rect id="Rectangle" x="68" y="10" width="1" height="34"></rect>
                    <rect id="Rectangle" x="72" y="12" width="1" height="30"></rect>
                    <rect id="Rectangle" x="76" y="14" width="1" height="26"></rect>
                    <rect id="Rectangle" x="80" y="16" width="1" height="22"></rect>
                    <rect id="Rectangle" x="84" y="18" width="1" height="18"></rect>
                    <rect id="Rectangle" x="88" y="20" width="1" height="14"></rect>
                    <rect id="Rectangle" x="92" y="22" width="1" height="10"></rect>
                    <rect id="Rectangle" x="96" y="24" width="1" height="6"></rect>
                </g>
            </g>
            <g id="Group" transform="translate(0.000000, 74.000000)">
                <polygon id="Path" stroke-width="5" stroke-linejoin="round" points="0 27 54 2.99760217e-15 108 27 54 54"></polygon>
                <g id="stripes-fill-svg" transform="translate(5.500000, 0.000000)" fill-rule="nonzero">
                    <rect id="Rectangle" x="0" y="25" width="1" height="4"></rect>
                    <rect id="Rectangle" x="4" y="24" width="1" height="6"></rect>
                    <rect id="Rectangle" x="8" y="22" width="1" height="10"></rect>
                    <rect id="Rectangle" x="12" y="20" width="1" height="14"></rect>
                    <rect id="Rectangle" x="16" y="18" width="1" height="18"></rect>
                    <rect id="Rectangle" x="20" y="16" width="1" height="22"></rect>
                    <rect id="Rectangle" x="24" y="14" width="1" height="26"></rect>
                    <rect id="Rectangle" x="28" y="12" width="1" height="30"></rect>
                    <rect id="Rectangle" x="32" y="10" width="1" height="34"></rect>
                    <rect id="Rectangle" x="36" y="8" width="1" height="38"></rect>
                    <rect id="Rectangle" x="40" y="6" width="1" height="42"></rect>
                    <rect id="Rectangle" x="44" y="4" width="1" height="46"></rect>
                    <rect id="Rectangle" x="48" y="0" width="1" height="54"></rect>
                    <rect id="Rectangle" x="52" y="2" width="1" height="50"></rect>
                    <rect id="Rectangle" x="56" y="4" width="1" height="46"></rect>
                    <rect id="Rectangle" x="60" y="6" width="1" height="42"></rect>
                    <rect id="Rectangle" x="64" y="8" width="1" height="38"></rect>
                    <rect id="Rectangle" x="68" y="10" width="1" height="34"></rect>
                    <rect id="Rectangle" x="72" y="12" width="1" height="30"></rect>
                    <rect id="Rectangle" x="76" y="14" width="1" height="26"></rect>
                    <rect id="Rectangle" x="80" y="16" width="1" height="22"></rect>
                    <rect id="Rectangle" x="84" y="18" width="1" height="18"></rect>
                    <rect id="Rectangle" x="88" y="20" width="1" height="14"></rect>
                    <rect id="Rectangle" x="92" y="22" width="1" height="10"></rect>
                    <rect id="Rectangle" x="96" y="24" width="1" height="6"></rect>
                </g>
            </g>
        </g>
    </g>
</svg>